<?xml version="1.0" encoding="utf-8"?>
<!-- Generator: Adobe Illustrator 26.0.1, SVG Export Plug-In . SVG Version: 6.00 Build 0)  -->
<svg version="1.1" id="Layer_1" xmlns="http://www.w3.org/2000/svg" xmlns:xlink="http://www.w3.org/1999/xlink" x="0px" y="0px"
	 viewBox="0 0 500 172.93" style="enable-background:new 0 0 500 172.93;" xml:space="preserve">
<style type="text/css">
	.st0{fill:#ABABAB;}
	.st1{fill:#737373;}
	.st2{fill:#FFFFFF;}
</style>
<g>
	<g>
		<path class="st0" d="M44.4,82.67L33.28,99.98L16.46,89.51c-3.64-2.27-4.72-7.12-2.4-10.85L24.92,61.2L42,71.82
			C45.64,74.08,46.71,78.95,44.4,82.67z"/>
		<path class="st1" d="M104.28,48.53l-34.85,52.05c-1.59,2.37-4.26,3.8-7.12,3.8H38.51l34.54-52.05c1.59-2.38,4.26-3.8,7.12-3.8
			H104.28z"/>
	</g>
	<g>
		<g>
			<path class="st2" d="M145.6,105.73c-5.83,0-10.7-1.11-14.61-3.33c-3.91-2.22-6.68-5.32-8.31-9.31
				c-1.63-3.99-1.91-8.63-0.84-13.93l5.28-26.4c0.52-2.62,2.83-4.51,5.5-4.51h14.35l-6.1,30.58c-0.37,1.98-0.51,3.69-0.4,5.14
				c0.11,1.45,0.47,2.65,1.08,3.61c0.61,0.96,1.46,1.67,2.53,2.13c1.07,0.46,2.35,0.68,3.85,0.68c1.82,0,3.38-0.37,4.7-1.12
				c1.31-0.75,2.41-1.98,3.29-3.69c0.88-1.71,1.59-3.96,2.13-6.74l5.2-26.07c0.52-2.62,2.83-4.51,5.5-4.51h14.02l-6.34,31.71
				c-1.66,8.4-5.06,14.8-10.19,19.19C161.09,103.53,154.21,105.73,145.6,105.73z"/>
			<path class="st2" d="M256.25,98.24l10-49.98h12.61c3.28,0,5.73,3,5.09,6.21l-10,49.98h-12.61
				C258.06,104.44,255.61,101.45,256.25,98.24z"/>
			<path class="st2" d="M287.72,98.24l10-49.98h25.37c5.94,0,11.05,0.96,15.33,2.89c4.28,1.93,7.57,4.67,9.87,8.23
				c2.3,3.56,3.45,7.8,3.45,12.72c0,4.98-0.87,9.45-2.61,13.41c-1.74,3.96-4.17,7.36-7.3,10.19c-3.13,2.84-6.84,5-11.12,6.5
				c-4.28,1.5-8.99,2.25-14.13,2.25H292.8C289.53,104.44,287.07,101.45,287.72,98.24z M308.39,89.67h8.83
				c3.37,0,6.19-0.74,8.47-2.21c2.27-1.47,4-3.45,5.18-5.94c1.18-2.49,1.77-5.26,1.77-8.31c0-2.19-0.44-4.04-1.33-5.54
				c-0.88-1.5-2.19-2.65-3.93-3.45c-1.74-0.8-3.89-1.2-6.46-1.2h-7.23L308.39,89.67z"/>
			<path class="st2" d="M377.58,90.16h28.18l-2.89,14.29h-40.39c-3.28,0-5.73-3-5.09-6.21l10-49.98h47.27l-3.1,14.29h-28.43
				L377.58,90.16z M380.93,72.58h25.04l-2.73,11.26H378.2L380.93,72.58z"/>
		</g>
		<g>
			<path class="st2" d="M215.19,105.73c-5.83,0-10.88-1.07-15.13-3.21c-4.25-2.14-7.55-5.1-9.87-8.87
				c-2.33-3.77-3.49-8.12-3.49-13.04c0-4.98,0.87-9.51,2.61-13.61c1.74-4.09,4.19-7.64,7.34-10.64c3.16-3,6.9-5.31,11.24-6.94
				c4.33-1.63,9.07-2.45,14.21-2.45c5.83,0,10.88,1.07,15.13,3.21c4.25,2.14,7.55,5.1,9.87,8.87s3.49,8.12,3.49,13.04
				c0,4.98-0.87,9.51-2.61,13.61c-1.74,4.09-4.19,7.64-7.34,10.64c-3.16,3-6.9,5.31-11.24,6.94
				C225.07,104.91,220.33,105.73,215.19,105.73z M216.8,90.4c2.35,0,4.43-0.45,6.22-1.36c1.79-0.91,3.33-2.17,4.62-3.77
				c1.28-1.61,2.25-3.44,2.89-5.5c0.64-2.06,0.96-4.24,0.96-6.54c0-2.19-0.44-4.11-1.32-5.74c-0.88-1.63-2.14-2.9-3.77-3.81
				c-1.63-0.91-3.6-1.36-5.9-1.36c-2.3,0-4.36,0.46-6.18,1.36c-1.82,0.91-3.37,2.17-4.66,3.77c-1.28,1.61-2.25,3.44-2.89,5.5
				c-0.64,2.06-0.96,4.24-0.96,6.54c0,2.14,0.44,4.04,1.32,5.7c0.88,1.66,2.14,2.94,3.77,3.85C212.53,89.94,214.5,90.4,216.8,90.4z"
				/>
			<path class="st2" d="M215.19,125.96c-6.1,0-11.27-1.35-15.49-4.05c-2.22-1.42-4.22-3.24-6.01-5.47c-2.5-3.12-0.72-7.8,3.21-8.57
				l12.91-2.53c0.75,2.94,1.67,4.92,2.77,5.94c1.1,1.02,2.55,1.53,4.37,1.53c1.39,0,2.82-0.31,4.29-0.92
				c0.01-0.01,0.03-0.01,0.04-0.02c2.5-1.06,5.4-0.28,6.83,2.03l4,6.45c-2.03,1.87-4.52,3.28-7.47,4.21
				C221.71,125.49,218.56,125.96,215.19,125.96z"/>
		</g>
		<g>
			<g>
				<path class="st2" d="M451.61,106.16h-12.69c-3.16,0-5.8-2.18-6.07-5.01l-4.97-52.27h12.61c3.72,0,6.81,2.57,7.1,5.9l2.43,27.64
					h0.18l14.81-29.75c1.15-2.3,3.69-3.79,6.5-3.79h15.65l-30.1,54.25C456.03,104.99,453.92,106.16,451.61,106.16z"/>
			</g>
		</g>
	</g>
</g>
</svg>
